<?xml version="1.0" standalone="no"?>
<!DOCTYPE svg PUBLIC "-//W3C//DTD SVG 1.1//EN" "http://www.w3.org/Graphics/SVG/1.1/DTD/svg11.dtd" >
<svg xmlns="http://www.w3.org/2000/svg">
<metadata>Generated by IcoMoon</metadata>
<defs>
<font id="icomoon" horiz-adv-x="1024">
<font-face units-per-em="1024" ascent="960" descent="-64" />
<missing-glyph horiz-adv-x="1024" />
<glyph unicode="&#x20;" horiz-adv-x="512" d="" />
<glyph unicode="&#xe900;" glyph-name="add" d="M512 960c-282.32 0-512-229.68-512-512s229.68-512 512-512 512 229.68 512 512-229.68 512-512 512zM512 9.142c-241.994 0-438.858 196.864-438.858 438.858s196.864 438.858 438.858 438.858 438.858-196.864 438.858-438.858-196.864-438.858-438.858-438.858zM512 691.81c-20.2 0-36.572-16.372-36.572-36.572v-414.476c0-20.2 16.372-36.572 36.572-36.572s36.572 16.372 36.572 36.572v414.476c0 20.2-16.372 36.572-36.572 36.572zM719.238 484.572h-414.476c-20.2 0-36.572-16.372-36.572-36.572s16.372-36.572 36.572-36.572h414.476c20.2 0 36.572 16.372 36.572 36.572s-16.372 36.572-36.572 36.572z" />
<glyph unicode="&#xe901;" glyph-name="check-mark1" d="M463.524 101.102c-46.426-46.426-121.757-46.426-168.161 0l-260.543 260.543c-46.426 46.404-46.426 121.735 0 168.138 46.404 46.426 121.735 46.426 168.161 0l155.232-155.21c11.719-11.696 30.742-11.696 42.483 0l420.324 420.324c46.404 46.426 121.735 46.426 168.161 0 22.294-22.294 34.82-52.543 34.82-84.069s-12.525-61.775-34.82-84.069l-525.657-525.657z" />
<glyph unicode="&#xe902;" glyph-name="check-mark" d="M463.524 101.102c-46.426-46.426-121.757-46.426-168.161 0l-260.543 260.543c-46.426 46.404-46.426 121.735 0 168.138 46.404 46.426 121.735 46.426 168.161 0l155.232-155.21c11.719-11.696 30.742-11.696 42.483 0l420.324 420.324c46.404 46.426 121.735 46.426 168.161 0 22.294-22.294 34.82-52.543 34.82-84.069s-12.525-61.775-34.82-84.069l-525.657-525.657z" />
<glyph unicode="&#xe903;" glyph-name="definitions" d="M704.918 520c0 22.092-17.908 40-40 40h-412c-22.092 0-40-17.908-40-40s17.908-40 40-40h412c22.092 0 40 17.908 40 40zM252.918 400c-22.092 0-40-17.908-40-40s17.908-40 40-40h250.222c22.092 0 40 17.908 40 40s-17.908 40-40 40h-250.222zM346.918 16h-133.778c-44.112 0-80 35.888-80 80v704c0 44.112 35.888 80 80 80h491.778c44.112 0 80-35.888 80-80v-246c0-22.092 17.908-40 40-40s40 17.908 40 40v246c0 88.224-71.776 160-160 160h-491.778c-88.224 0-160-71.776-160-160v-704c0-88.224 71.776-160 160-160h133.778c22.092 0 40 17.908 40 40s-17.908 40-40 40zM935.768 380.856c-46.788 46.788-122.916 46.79-169.674 0.032l-219.606-219.12c-4.664-4.654-8.104-10.386-10.020-16.69l-47.826-157.45c-4.24-13.96-0.546-29.118 9.642-39.56 7.632-7.822 18-12.068 28.634-12.068 3.558 0 7.15 0.476 10.676 1.454l161.45 44.722c6.644 1.84 12.7 5.366 17.58 10.238l219.146 218.734c46.788 46.788 46.788 122.916-0.002 169.708zM667.552 56.464l-81.224-22.5 23.77 78.258 148.178 147.85 56.58-56.58-147.304-147.028zM879.23 267.74l-7.75-7.734-56.57 56.57 7.724 7.708c15.596 15.596 40.972 15.596 56.568 0s15.596-40.972 0.028-56.544zM664.918 720h-412c-22.092 0-40-17.908-40-40s17.908-40 40-40h412c22.092 0 40 17.908 40 40s-17.908 40-40 40z" />
<glyph unicode="&#xe904;" d="M512 789.333c-273.34 0-494.933-31.846-494.933 34.133v-119.808c0-21.589 8.823-42.24 24.422-57.156l343.689-328.755c15.599-14.916 24.422-35.55 24.422-57.139v-307.541l204.8 119.467v188.075c0 21.589 8.823 42.24 24.422 57.156l343.689 328.755c15.599 14.916 24.422 35.55 24.422 57.139v119.808c0-65.98-221.594-34.133-494.933-34.133z" />
<glyph unicode="&#xe905;" d="M1006.933 823.467c0-65.98-221.589-119.467-494.933-119.467s-494.933 53.487-494.933 119.467c0 65.98 221.589 119.467 494.933 119.467s494.933-53.487 494.933-119.467z" />
<glyph unicode="&#xe906;" d="M512 686.933c-254.43 0-512 46.899-512 136.533s257.57 136.533 512 136.533 512-46.899 512-136.533-257.57-136.533-512-136.533zM512 925.867c-296.073 0-477.867-59.648-477.867-102.4s181.794-102.4 477.867-102.4 477.867 59.648 477.867 102.4-181.794 102.4-477.867 102.4z" />
<glyph unicode="&#xe907;" d="M409.6-64c-2.935 0-5.871 0.751-8.499 2.27-5.308 3.038-8.567 8.687-8.567 14.797v307.541c0 16.845-6.98 33.178-19.149 44.817l-343.689 328.755c-18.876 18.039-29.696 43.366-29.696 69.478v119.808c0 9.421 7.646 17.067 17.067 17.067s17.067-7.646 17.067-17.067c0-42.752 181.794-102.4 477.867-102.4s477.867 59.648 477.867 102.4c0 9.421 7.646 17.067 17.067 17.067s17.067-7.646 17.067-17.067v-119.808c0-26.112-10.82-51.439-29.696-69.478l-343.671-328.755c-12.186-11.639-19.166-27.972-19.166-44.817v-188.075c0-6.059-3.226-11.691-8.465-14.746l-204.8-119.467c-2.662-1.553-5.632-2.321-8.602-2.321zM34.133 770.901v-67.243c0-16.845 6.98-33.178 19.149-44.817l343.689-328.755c18.876-18.039 29.696-43.366 29.696-69.478v-277.828l170.667 99.55v178.278c0 26.112 10.82 51.439 29.696 69.478l343.671 328.755c12.186 11.639 19.166 27.972 19.166 44.817v67.243c-78.217-55.313-279.006-83.968-477.867-83.968s-399.65 28.655-477.867 83.968z" />
<glyph unicode="&#xe908;" d="M512 789.333c-273.34 0-494.933-31.846-494.933 34.133v-119.808c0-21.589 8.823-42.24 24.422-57.156l343.689-328.755c15.599-14.916 24.422-35.55 24.422-57.139v-307.541l204.8 119.467v188.075c0 21.589 8.823 42.24 24.422 57.156l343.689 328.755c15.599 14.916 24.422 35.55 24.422 57.139v119.808c0-65.98-221.594-34.133-494.933-34.133z" />
<glyph unicode="&#xe909;" d="M1006.933 823.467c0-65.98-221.589-119.467-494.933-119.467s-494.933 53.487-494.933 119.467c0 65.98 221.589 119.467 494.933 119.467s494.933-53.487 494.933-119.467z" />
<glyph unicode="&#xe90a;" d="M512 686.933c-254.43 0-512 46.899-512 136.533s257.57 136.533 512 136.533 512-46.899 512-136.533-257.57-136.533-512-136.533zM512 925.867c-296.073 0-477.867-59.648-477.867-102.4s181.794-102.4 477.867-102.4 477.867 59.648 477.867 102.4-181.794 102.4-477.867 102.4z" />
<glyph unicode="&#xe90b;" d="M409.6-64c-2.935 0-5.871 0.751-8.499 2.27-5.308 3.038-8.567 8.687-8.567 14.797v307.541c0 16.845-6.98 33.178-19.149 44.817l-343.689 328.755c-18.876 18.039-29.696 43.366-29.696 69.478v119.808c0 9.421 7.646 17.067 17.067 17.067s17.067-7.646 17.067-17.067c0-42.752 181.794-102.4 477.867-102.4s477.867 59.648 477.867 102.4c0 9.421 7.646 17.067 17.067 17.067s17.067-7.646 17.067-17.067v-119.808c0-26.112-10.82-51.439-29.696-69.478l-343.671-328.755c-12.186-11.639-19.166-27.972-19.166-44.817v-188.075c0-6.059-3.226-11.691-8.465-14.746l-204.8-119.467c-2.662-1.553-5.632-2.321-8.602-2.321zM34.133 770.901v-67.243c0-16.845 6.98-33.178 19.149-44.817l343.689-328.755c18.876-18.039 29.696-43.366 29.696-69.478v-277.828l170.667 99.55v178.278c0 26.112 10.82 51.439 29.696 69.478l343.671 328.755c12.186 11.639 19.166 27.972 19.166 44.817v67.243c-78.217-55.313-279.006-83.968-477.867-83.968s-399.65 28.655-477.867 83.968z" />
<glyph unicode="&#xe90c;" glyph-name="home1" d="M926.633-64h-296.166c-20.14 0-35.539 15.401-35.539 35.539v260.627h-165.853v-260.627c0-20.14-15.401-35.539-35.539-35.539h-296.168c-20.14 0-35.539 15.401-35.539 35.539v561.532c0 9.478 3.553 18.954 10.662 26.063l402.785 390.939c13.031 13.031 34.355 13.031 48.57 1.184l426.48-390.939c7.109-7.109 11.848-16.585 11.848-26.063v-561.532c0-21.322-15.401-36.723-35.541-36.723zM666.006 7.080h225.086v510.59l-389.753 357.77-368.432-357.77v-510.592h225.086v260.629c0 20.14 15.401 35.539 35.539 35.539h236.934c20.14 0 35.539-15.401 35.539-35.539v-260.627z" />
<glyph unicode="&#xe90d;" glyph-name="home5" d="M139.237 17.253c0 0-0.91-22.89 21.45-22.89 27.817 0 258.122 0.303 258.122 0.303l0.379 211.508c0 0-3.638 34.866 30.205 34.866h107.099c40.020 0 37.557-34.866 37.557-34.866l-0.455-210.826c0 0 218.367 0 252.665 0 28.385 0 27.097 28.499 27.097 28.499v389.931l-356.088 316.75-378.031-316.75c0 0 0-396.525 0-396.525zM0 443.263c0 0 32.099-59.159 102.097 0l418.317 353.89 392.205-351.692c81.026-58.438 111.382 0 111.382 0l-503.587 456.176-520.413-458.375zM903.106 797.987h-100.884l0.417-122.334 100.467-85.232z" />
<glyph unicode="&#xe90e;" glyph-name="operation3" d="M247.742 530.581v33.032c-81.968 0-148.645 66.677-148.645 148.645h-33.032c0-100.169 81.508-181.677 181.677-181.677zM247.742 596.645c63.734 0 115.613 51.879 115.613 115.613s-51.879 115.613-115.613 115.613-115.613-51.879-115.613-115.613 51.879-115.613 115.613-115.613zM247.742 794.839c45.532 0 82.581-37.048 82.581-82.581s-37.048-82.581-82.581-82.581-82.581 37.048-82.581 82.581 37.048 82.581 82.581 82.581zM247.742 662.71c27.315 0 49.548 22.234 49.548 49.548s-22.234 49.548-49.548 49.548-49.548-22.234-49.548-49.548 22.234-49.548 49.548-49.548zM247.742 728.774c9.113 0 16.516-7.403 16.516-16.516s-7.403-16.516-16.516-16.516-16.516 7.403-16.516 16.516 7.403 16.516 16.516 16.516zM1024 172.016v122.548l-44.694 15.589c-5.016 16.484-11.581 32.371-19.621 47.435l20.581 42.581-15.952 15.952c-7.387 9.702-19.508 22.5-28.677 31.766-11.411 11.54-24.573 24.065-33.508 31.887l-109.887 96.097 9.435 28.29 38.234-19.129 63.556 63.556-19.129 38.234 40.565 13.524v89.871l-40.565 13.508 19.129 38.234-63.556 63.556-38.234-19.129-13.508 40.581h-89.871l-13.508-40.565-38.234 19.129-63.556-63.556 19.129-38.234-40.581-13.508v-12.605l-135.944 118.879c-46.79 40.944-106.79 63.492-168.976 63.492v-0.444c-2.976 0.097-5.879 0.444-8.887 0.444-136.605 0-247.742-111.137-247.742-247.742 0-3.008 0.347-5.911 0.444-8.887h-0.444c0-62.185 22.548-122.169 63.492-168.96l118.96-135.96h-12.685l-13.508-40.565-38.234 19.129-63.556-63.556 19.129-38.234-40.565-13.508v-89.871l40.565-13.508-19.129-38.234 63.556-63.556 38.234 19.129 13.508-40.581h89.871l13.508 40.565 38.234-19.129 63.556 63.556-19.129 38.234 28.476 9.484 95.871-109.573c7.516-8.573 18.782-20.508 29.387-31.194 10.040-10.097 23.863-23.403 34.234-31.315l16.008-16.008 42.581 20.581c15.056-8.024 30.952-14.605 47.427-19.621l15.645-44.677h122.548l15.589 44.694c16.484 5.016 32.371 11.581 47.435 19.621l42.581-20.581 86.677 86.677-20.581 42.581c8.024 15.065 14.605 30.952 19.621 47.435zM493.734 357.589c-8.024-15.065-14.605-30.952-19.621-47.435l-44.694-15.589v-122.548l44.694-15.589c5.016-16.484 11.581-32.371 19.621-47.435l-5.008-10.355-337.21 385.339c29.597-12.524 62.121-19.46 96.226-19.46 136.605 0 247.742 111.137 247.742 247.742 0 34.137-6.935 66.677-19.476 96.29l385.573-337.177-10.556-5.105c-15.056 8.024-30.952 14.605-47.435 19.621l-15.605 44.694h-122.548l-15.589-44.694c-16.484-5.016-32.371-11.581-47.435-19.621l-42.581 20.581-86.677-86.677zM594.581 766.411l37.919 12.637 2.774 7.315c0.815 2.137 1.653 4.202 2.548 6.25l3.202 7.145-17.855 35.71 29.879 29.879 35.71-17.855 7.145 3.202c2.048 0.911 4.113 1.734 6.25 2.548l7.315 2.774 12.637 37.919h42.258l12.637-37.919 7.315-2.774c2.137-0.815 4.202-1.653 6.25-2.548l7.145-3.202 35.71 17.855 29.879-29.879-17.855-35.71 3.202-7.145c0.911-2.048 1.734-4.113 2.548-6.25l2.774-7.315 37.903-12.637v-42.258l-37.919-12.637-2.774-7.315c-0.815-2.137-1.653-4.202-2.548-6.25l-3.202-7.145 17.855-35.71-29.879-29.879-35.71 17.855-7.145-3.202c-2.048-0.911-4.113-1.734-6.25-2.548l-7.315-2.774-11.694-35.113-170.71 149.306zM247.742 926.968c118.387 0 214.71-96.323 214.71-214.71s-96.323-214.71-214.71-214.71-214.71 96.323-214.71 214.71 96.323 214.71 214.71 214.71zM325.435 183.016l-2.774-7.315c-0.815-2.137-1.653-4.202-2.548-6.25l-3.202-7.145 17.855-35.71-29.879-29.879-35.71 17.855-7.145-3.202c-2.048-0.911-4.113-1.734-6.25-2.548l-7.315-2.774-12.637-37.919h-42.258l-12.637 37.919-7.315 2.774c-2.137 0.815-4.202 1.653-6.25 2.548l-7.145 3.202-35.694-17.855-29.879 29.879 17.855 35.71-3.202 7.145c-0.911 2.048-1.734 4.113-2.548 6.25l-2.774 7.315-37.919 12.637v42.258l37.919 12.637 2.774 7.315c0.815 2.137 1.653 4.202 2.548 6.25l3.202 7.145-17.855 35.694 29.879 29.879 35.71-17.855 7.145 3.202c2.048 0.911 4.113 1.734 6.25 2.548l7.315 2.774 12.637 37.919h17.782l149.339-170.661zM952.089 181.911l-2.266-8.444c-5.25-19.621-12.992-38.347-23.016-55.677l-4.395-7.581 17.887-37.024-53.484-53.484-37.024 17.887-7.581-4.395c-17.331-10.008-36.073-17.75-55.677-23.016l-8.444-2.266-13.556-38.879h-75.645l-13.556 38.879-8.444 2.266c-19.621 5.25-38.347 12.992-55.677 23.016l-7.581 4.395-37.024-17.887-53.484 53.484 17.887 37.024-4.395 7.581c-10.008 17.331-17.75 36.073-23.016 55.677l-2.266 8.444-38.879 13.556v75.645l38.879 13.556 2.266 8.444c5.25 19.621 12.992 38.347 23.016 55.677l4.395 7.581-17.887 37.024 53.484 53.484 37.024-17.887 7.581 4.395c17.331 10.008 36.073 17.75 55.677 23.016l8.444 2.266 13.556 38.879h75.645l13.556-38.879 8.444-2.266c19.621-5.25 38.347-12.992 55.677-23.016l7.581-4.395 37.024 17.887 53.484-53.484-17.887-37.024 4.395-7.581c10.008-17.331 17.75-36.073 23.016-55.677l2.266-8.444 38.879-13.556v-75.645zM726.71 398.452c-91.073 0-165.161-74.089-165.161-165.161s74.089-165.161 165.161-165.161 165.161 74.089 165.161 165.161-74.089 165.161-165.161 165.161zM726.71 101.161c-72.855 0-132.129 59.274-132.129 132.129s59.274 132.129 132.129 132.129 132.129-59.274 132.129-132.129-59.274-132.129-132.129-132.129zM726.71 332.387c-54.653 0-99.097-44.444-99.097-99.097s44.444-99.097 99.097-99.097 99.097 44.444 99.097 99.097-44.444 99.097-99.097 99.097zM726.71 167.226c-36.435 0-66.065 29.629-66.065 66.065s29.629 66.065 66.065 66.065 66.065-29.629 66.065-66.065-29.629-66.065-66.065-66.065zM825.806 745.29c0 45.532-37.048 82.581-82.581 82.581s-82.581-37.048-82.581-82.581 37.048-82.581 82.581-82.581 82.581 37.048 82.581 82.581zM693.677 745.29c0 27.315 22.234 49.548 49.548 49.548s49.548-22.234 49.548-49.548-22.234-49.548-49.548-49.548-49.548 22.234-49.548 49.548zM132.129 216.774c0-45.532 37.048-82.581 82.581-82.581s82.581 37.048 82.581 82.581-37.048 82.581-82.581 82.581-82.581-37.048-82.581-82.581zM264.258 216.774c0-27.315-22.234-49.548-49.548-49.548s-49.548 22.234-49.548 49.548 22.234 49.548 49.548 49.548 49.548-22.234 49.548-49.548z" />
<glyph unicode="&#xe90f;" glyph-name="operation5" d="M981.334 576.064h-84.906c-6.038 18.282-13.38 36.104-21.974 53.334l59.946 59.946c0.004 0.004 0.008 0.008 0.012 0.012 16.658 16.666 16.654 43.68-0.012 60.34l-120.704 120.704c-16.882 16.114-43.448 16.114-60.33 0l-60.032-59.99c-17.228 8.592-35.052 15.936-53.334 21.974v84.95c0 23.564-19.102 42.666-42.666 42.666h-170.666c-23.566 0-42.668-19.102-42.668-42.666v-84.95c-18.302-6.020-36.148-13.35-53.398-21.93l-59.946 59.946c-16.882 16.138-43.47 16.138-60.352 0l-120.704-120.704c-16.656-16.662-16.656-43.67 0-60.33l59.99-60.032c-8.592-17.228-15.936-35.052-21.974-53.334h-84.95c-23.564 0-42.666-19.102-42.666-42.666v-85.334h42.666v85.334h100.672c9.508-0.002 17.868 6.288 20.502 15.424 7.4 25.85 17.66 50.794 30.592 74.368 4.602 8.322 3.14 18.684-3.584 25.408l-71.062 70.998 120.682 120.682 71.082-71.062c6.72-6.714 17.070-8.174 25.386-3.584 23.556 12.924 48.478 23.184 74.304 30.592 9.136 2.634 15.426 10.994 15.424 20.502v100.672h170.666v-100.672c-0.002-9.508 6.288-17.868 15.424-20.502 25.856-7.402 50.806-17.662 74.39-30.592 8.316-4.59 18.666-3.13 25.386 3.584l70.998 71.062 120.682-120.682-71.062-71.062c-6.724-6.724-8.186-17.086-3.584-25.408 12.928-23.554 23.188-48.476 30.592-74.304 2.634-9.136 10.994-15.426 20.502-15.424h100.672v-85.334h42.67v85.398c0 23.564-19.102 42.666-42.666 42.666zM512 682.666c-117.82 0-213.334-95.512-213.334-213.334v-21.332h42.666v21.334c0.002 94.256 76.412 170.666 170.668 170.666s170.666-76.41 170.666-170.666v-21.334h42.666v21.334c0.002 117.82-95.512 213.332-213.332 213.332zM490.66 874.666h42.666v-42.666h-42.666v42.666zM213.34 746.66h42.666v-42.666h-42.666v42.666zM85.334 490.66h42.666v-42.666h-42.666v42.666zM896 490.66h42.666v-42.666h-42.666v42.666zM768 746.66h42.666v-42.666h-42.666v42.666zM256 149.334h-213.334c-23.564 0-42.666-19.104-42.666-42.668v-128c0-23.564 19.102-42.666 42.666-42.666h213.334c23.564 0 42.666 19.102 42.666 42.666v128c0 23.564-19.102 42.668-42.666 42.668zM256-21.334h-213.334v128h213.334v-128zM981.334 149.334h-213.334c-23.564 0-42.666-19.102-42.666-42.666v-128c0-23.564 19.102-42.666 42.666-42.666h213.334c23.564 0 42.666 19.102 42.666 42.666v128c0 23.562-19.102 42.666-42.666 42.666zM981.334-21.334h-213.334v128h213.334v-128zM618.666 149.334h-213.332c-23.564 0-42.666-19.102-42.666-42.666v-128c0-23.564 19.102-42.666 42.666-42.666h213.334c23.564 0 42.666 19.102 42.666 42.666v128c0 23.562-19.104 42.666-42.668 42.666zM618.668-21.334h-213.334v128h213.334v-128zM874.666 320h-725.332c-11.782 0-21.334-9.552-21.334-21.334v-106.666h42.666v85.334h682.666v-85.334h42.668v106.666c0 11.782-9.552 21.334-21.334 21.334zM490.66 469.34h42.666v-277.34h-42.666v277.34zM85.334 64h42.666v-42.666h-42.666v42.666zM170.66 64h42.666v-42.666h-42.666v42.666zM448 64h42.666v-42.666h-42.666v42.666zM533.34 64h42.666v-42.666h-42.666v42.666zM810.66 64h42.666v-42.666h-42.666v42.666zM896 64h42.666v-42.666h-42.666v42.666zM512 576c-58.91 0-106.666-47.756-106.666-106.666v-21.334h42.666v21.334c0 35.346 28.654 64 64 64s64-28.654 64-64v-21.334h42.666v21.334c0 58.91-47.756 106.666-106.666 106.666z" />
<glyph unicode="&#xe910;" glyph-name="operation6" d="M431.965 776.574l-29.84 13.16c-1.353 5.010-2.821 9.753-4.459 14.327l16.582 28.553c3.022 5.222 3.074 11.647 0.135 16.915-8.169 14.583-17.924 28.22-29.088 40.662-4.138 4.662-10.497 6.679-16.565 5.26l-31.392-7.182c-3.657 2.922-7.474 5.739-11.454 8.449l-3.039 33.23c-0.564 6.072-4.318 11.384-9.851 13.942-14.964 7.008-30.678 12.286-46.839 15.729-6.096 1.297-12.412-0.842-16.464-5.576l-21.908-25.433h-13.158l-21.912 25.435c-4.048 4.739-10.368 6.88-16.464 5.576-16.161-3.445-31.875-8.723-46.839-15.729-5.54-2.563-9.293-7.883-9.851-13.959l-3.039-33.213c-3.958-2.706-7.797-5.527-11.454-8.449l-31.396 7.179c-6.068 1.423-12.429-0.596-16.565-5.26-11.166-12.44-20.921-26.076-29.088-40.662-2.939-5.269-2.888-11.694 0.135-16.915l16.582-28.553c-1.637-4.576-3.106-9.317-4.459-14.327l-29.842-13.158c-6.194-2.738-10.189-8.872-10.187-15.646v-46.454c-0.004-6.773 3.99-12.908 10.187-15.646l29.84-13.16c1.353-5.010 2.821-9.753 4.459-14.327l-16.582-28.553c-3.022-5.222-3.074-11.647-0.135-16.915 8.169-14.583 17.924-28.22 29.088-40.662 4.144-4.651 10.497-6.669 16.565-5.26l31.392 7.182c3.657-2.922 7.474-5.739 11.454-8.449l3.039-33.23c0.564-6.072 4.318-11.384 9.851-13.942 14.964-7.008 30.678-12.286 46.839-15.729 6.096-1.289 12.407 0.849 16.464 5.576l21.908 25.431h13.158l21.908-25.431c3.247-3.777 7.979-5.948 12.959-5.944 1.178-0.002 2.353 0.122 3.507 0.368 16.161 3.445 31.875 8.723 46.839 15.729 5.54 2.563 9.293 7.883 9.851 13.959l3.039 33.213c3.958 2.706 7.797 5.527 11.454 8.449l31.394-7.179c6.068-1.415 12.425 0.605 16.565 5.26 11.166 12.44 20.921 26.076 29.088 40.662 2.939 5.269 2.888 11.694-0.135 16.915l-16.582 28.553c1.637 4.576 3.106 9.317 4.459 14.327l29.84 13.158c6.194 2.738 10.189 8.872 10.187 15.646v46.452c0.009 6.773-3.986 12.91-10.18 15.646zM407.955 725.613l-27.301-12.040c-4.931-2.184-8.545-6.566-9.753-11.822-1.917-8.663-4.565-17.148-7.915-25.364-2.039-4.925-1.669-10.516 1.002-15.128l15.646-26.967c-4.085-6.487-8.552-12.726-13.376-18.685l-29.556 6.763c-5.373 1.261-11.022-0.171-15.145-3.841-6.547-5.747-13.562-10.937-20.974-15.513-4.561-2.826-7.53-7.63-8.015-12.974l-2.873-31.377c-6.825-2.77-13.805-5.14-20.906-7.096l-20.222 23.477c-3.249 3.772-7.979 5.942-12.959 5.944h-28.823c-4.978-0.002-9.708-2.172-12.959-5.944l-20.222-23.477c-7.107 1.956-14.092 4.326-20.923 7.096l-2.873 31.409c-0.496 5.335-3.463 10.131-8.015 12.957-7.41 4.563-14.421 9.749-20.957 15.496-4.123 3.668-9.772 5.1-15.145 3.841l-29.556-6.763c-4.824 5.959-9.289 12.198-13.376 18.685l15.646 26.967c2.67 4.612 3.041 10.204 1.002 15.128-3.349 8.216-5.997 16.701-7.915 25.364-1.208 5.256-4.82 9.637-9.753 11.822l-27.301 12.040v24.18l27.303 12.040c4.931 2.184 8.545 6.566 9.753 11.822 1.917 8.663 4.565 17.148 7.915 25.364 2.039 4.925 1.669 10.516-1.002 15.128l-15.646 26.967c4.085 6.487 8.55 12.726 13.374 18.685l29.556-6.763c5.373-1.25 11.018 0.182 15.145 3.841 6.547 5.747 13.562 10.937 20.974 15.513 4.561 2.826 7.53 7.63 8.015 12.974l2.873 31.377c6.825 2.77 13.805 5.14 20.906 7.096l20.222-23.477c3.249-3.772 7.979-5.942 12.959-5.944h28.82c4.978 0.002 9.708 2.174 12.959 5.944l20.222 23.477c7.107-1.956 14.092-4.326 20.923-7.096l2.873-31.409c0.496-5.335 3.463-10.131 8.015-12.957 7.41-4.563 14.421-9.749 20.957-15.496 4.125-3.661 9.772-5.093 15.145-3.841l29.556 6.763c4.824-5.959 9.291-12.198 13.376-18.685l-15.646-26.967c-2.67-4.612-3.041-10.204-1.002-15.128 3.349-8.216 5.997-16.701 7.915-25.364 1.208-5.256 4.82-9.637 9.753-11.822l27.301-12.040v-24.18zM221.2 857.395c-66.105 0-119.693-53.588-119.693-119.693 0.079-66.071 53.623-119.614 119.693-119.693 66.105 0 119.693 53.588 119.693 119.693s-53.588 119.693-119.693 119.693zM221.2 652.206c-47.217 0-85.495 38.278-85.495 85.495 0.056 47.196 38.3 85.44 85.495 85.495 47.217 0 85.495-38.278 85.495-85.495s-38.278-85.495-85.495-85.495zM1013.55 806.899l-23.612 10.42c-0.919 3.307-1.919 6.478-2.988 9.569l13.158 22.675c3.022 5.228 3.074 11.657 0.135 16.932-6.923 12.326-15.175 23.855-24.614 34.382-4.136 4.653-10.484 6.673-16.548 5.26l-24.847-5.677c-2.439 1.904-4.944 3.751-7.515 5.544l-2.405 26.35c-0.551 6.079-4.307 11.403-9.851 13.959-12.675 5.921-25.978 10.386-39.659 13.309-6.096 1.302-12.416-0.838-16.464-5.576l-17.4-20.205h-8.349l-17.4 20.205c-4.046 4.743-10.368 6.885-16.464 5.576-13.679-2.924-26.984-7.387-39.659-13.309-5.544-2.556-9.3-7.881-9.851-13.959l-2.405-26.35c-2.571-1.787-5.076-3.636-7.515-5.544l-24.847 5.677c-6.064 1.404-12.407-0.613-16.548-5.26-9.441-10.524-17.689-22.062-24.597-34.399-2.939-5.269-2.89-11.694 0.133-16.915l13.143-22.658c-1.069-3.089-2.065-6.284-2.988-9.584l-23.612-10.422c-6.203-2.729-10.206-8.868-10.202-15.646v-38.706c-0.004-6.778 3.999-12.916 10.202-15.646l23.612-10.42c0.919-3.307 1.919-6.478 2.988-9.569l-13.158-22.678c-3.022-5.228-3.074-11.657-0.135-16.932 6.921-12.326 15.175-23.855 24.614-34.382 4.14-4.655 10.497-6.675 16.565-5.26l24.813 5.694c2.439-1.919 4.959-3.775 7.53-5.561l2.405-26.35c0.551-6.081 4.309-11.403 9.851-13.959 12.675-5.921 25.978-10.386 39.659-13.309 6.096-1.291 12.41 0.846 16.464 5.576l17.4 20.205h8.349l17.4-20.205c3.247-3.777 7.979-5.948 12.959-5.944 1.178-0.002 2.353 0.122 3.507 0.368 13.681 2.924 26.984 7.387 39.659 13.309 5.544 2.556 9.3 7.881 9.851 13.959l2.405 26.35c2.571 1.787 5.076 3.636 7.515 5.544l24.847-5.677c6.064-1.406 12.41 0.611 16.548 5.26 9.437 10.524 17.691 22.056 24.614 34.382 2.939 5.275 2.888 11.704-0.135 16.932l-13.158 22.675c1.069 3.089 2.071 6.263 2.988 9.569l23.612 10.42c6.203 2.729 10.206 8.868 10.202 15.646v38.708c0.004 6.778-3.999 12.916-10.202 15.646zM989.554 763.684l-21.057-9.285c-4.954-2.178-8.579-6.577-9.768-11.856-1.562-7.045-3.719-13.942-6.446-20.621-2.039-4.929-1.669-10.527 1.002-15.145l12.172-20.974c-2.755-4.275-5.728-8.438-8.917-12.491l-22.911 5.243c-5.363 1.255-10.999-0.177-15.111-3.841-5.326-4.672-11.033-8.889-17.065-12.606-4.574-2.826-7.556-7.637-8.049-12.991l-2.221-24.413c-4.591-1.804-9.201-3.373-13.793-4.677l-15.663 18.185c-3.249 3.772-7.979 5.942-12.957 5.944h-24.011c-4.978-0.002-9.708-2.174-12.957-5.944l-15.663-18.185c-4.591 1.302-9.201 2.873-13.793 4.677l-2.221 24.413c-0.494 5.354-3.473 10.165-8.049 12.991-6.030 3.713-11.732 7.932-17.050 12.606-4.14 3.638-9.77 5.072-15.145 3.858l-22.893-5.243c-3.189 4.025-6.162 8.199-8.917 12.474l12.172 20.974c2.67 4.619 3.041 10.217 1.002 15.145-2.727 6.679-4.884 13.579-6.446 20.621-1.191 5.279-4.816 9.678-9.768 11.856l-21.057 9.285v16.43l21.057 9.285c4.954 2.178 8.579 6.577 9.768 11.856 1.565 7.053 3.721 13.964 6.446 20.656 2.039 4.925 1.669 10.516-1.002 15.128l-12.157 20.974c2.738 4.258 5.711 8.432 8.9 12.474l22.911-5.243c5.363-1.24 10.993 0.19 15.111 3.841 5.326 4.672 11.033 8.889 17.065 12.606 4.574 2.826 7.556 7.637 8.049 12.991l2.221 24.413c4.591 1.804 9.201 3.373 13.793 4.677l15.663-18.185c3.249-3.772 7.979-5.942 12.959-5.944h24.011c4.978 0.002 9.71 2.172 12.959 5.944l15.663 18.185c4.591-1.302 9.201-2.873 13.793-4.677l2.221-24.413c0.494-5.354 3.473-10.165 8.049-12.991 6.032-3.717 11.738-7.934 17.065-12.606 4.117-3.655 9.751-5.087 15.111-3.841l22.911 5.243c3.189-4.042 6.162-8.203 8.917-12.491l-12.172-20.974c-2.67-4.619-3.041-10.217-1.002-15.145 2.727-6.679 4.884-13.579 6.446-20.621 1.191-5.279 4.816-9.678 9.768-11.856l21.057-9.285v-16.43zM836.765 857.395c-47.217 0-85.495-38.278-85.495-85.495 0.056-47.196 38.3-85.44 85.495-85.495 47.217 0 85.495 38.278 85.495 85.495s-38.278 85.495-85.495 85.495zM836.765 720.603c-28.331 0-51.297 22.966-51.297 51.297 0.030 28.318 22.979 51.267 51.297 51.297 28.331 0 51.297-22.966 51.297-51.297s-22.968-51.297-51.297-51.297zM1009.325 236.42l-24.781 5.211c-1.020 4.292-2.172 8.584-3.456 12.841l19.003 17.033c5.457 4.884 7.197 12.7 4.324 19.437-8.248 19.142-18.796 37.208-31.409 53.802-4.416 5.835-12.044 8.229-19.003 5.961l-23.896-7.848c-3.039 3.223-6.194 6.378-9.417 9.417l7.848 23.879c2.285 6.949-0.105 14.581-5.944 18.986-16.592 12.634-34.664 23.195-53.819 31.443-6.739 2.843-14.538 1.107-19.437-4.324l-17.033-19.018c-4.258 1.302-8.55 2.454-12.841 3.473l-5.211 24.781c-1.667 7.91-8.646 13.575-16.731 13.577h-58.308c-8.086-0.002-15.064-5.664-16.731-13.577l-5.211-24.781c-4.292-1.020-8.584-2.172-12.841-3.456l-17.033 19.003c-4.897 5.433-12.698 7.169-19.437 4.324-19.142-8.248-37.208-18.796-53.802-31.409-5.85-4.405-8.246-12.044-5.961-19.003l7.848-23.896c-3.223-3.039-6.378-6.194-9.417-9.417l-23.879 7.848c-6.949 2.251-14.562-0.133-18.986-5.944-12.634-16.592-23.195-34.664-31.443-53.819-2.873-6.737-1.133-14.553 4.324-19.437l19.018-17.033c-1.302-4.258-2.454-8.55-3.473-12.841l-24.781-5.211c-7.91-1.667-13.575-8.646-13.577-16.731v-58.31c0.002-8.086 5.664-15.064 13.577-16.731l24.781-5.211c1.020-4.292 2.172-8.584 3.456-12.841l-19.003-17.033c-5.457-4.884-7.197-12.7-4.324-19.437 8.248-19.142 18.796-37.208 31.409-53.802 4.416-5.835 12.044-8.229 19.003-5.961l23.896 7.848c3.039-3.223 6.194-6.378 9.417-9.417l-7.848-23.879c-2.285-6.949 0.105-14.581 5.944-18.986 16.592-12.634 34.664-23.195 53.819-31.443 6.735-2.888 14.562-1.146 19.437 4.324l17.033 19.018c4.258-1.302 8.55-2.454 12.841-3.473l5.211-24.781c1.667-7.91 8.646-13.575 16.731-13.577h58.31c8.086 0.002 15.064 5.664 16.731 13.577l5.211 24.781c4.292 1.020 8.584 2.172 12.841 3.456l17.033-19.003c4.875-5.47 12.702-7.209 19.437-4.324 19.142 8.248 37.208 18.796 53.802 31.409 5.85 4.405 8.246 12.046 5.961 19.003l-7.848 23.896c3.223 3.039 6.378 6.194 9.417 9.417l23.879-7.848c6.949-2.268 14.571 0.12 18.986 5.944 12.634 16.592 23.195 34.664 31.443 53.819 2.873 6.737 1.133 14.553-4.324 19.437l-19.018 17.033c1.302 4.258 2.454 8.55 3.473 12.841l24.781 5.211c7.91 1.667 13.575 8.646 13.577 16.731v58.31c-0.004 8.084-5.666 15.064-13.579 16.731zM988.701 175.254l-22.124-4.659c-6.81-1.432-12.072-6.846-13.309-13.692-1.847-10.142-4.533-20.111-8.032-29.808-2.355-6.553-0.498-13.878 4.692-18.518l17.935-16.065c-4.461-8.909-9.509-17.512-15.111-25.749l-22.592 7.432c-6.619 2.161-13.889 0.109-18.401-5.194-6.673-7.889-13.989-15.212-21.874-21.891-5.299-4.51-7.344-11.775-5.177-18.386l7.432-22.575c-8.237-5.606-16.838-10.655-25.749-15.111l-16.080 17.935c-4.657 5.175-11.978 7.028-18.535 4.692-9.682-3.505-19.643-6.192-29.774-8.032-6.846-1.238-12.262-6.5-13.692-13.309l-4.659-22.126h-30.558l-4.659 22.126c-1.432 6.81-6.846 12.072-13.692 13.309-10.142 1.847-20.111 4.533-29.808 8.032h0.002c-6.553 2.317-13.859 0.466-18.518-4.692l-16.065-17.935c-8.909 4.461-17.512 9.509-25.749 15.111l7.432 22.592c2.172 6.619 0.118 13.895-5.194 18.401-7.889 6.673-15.212 13.989-21.891 21.874-4.516 5.288-11.773 7.331-18.386 5.177l-22.577-7.432c-5.606 8.237-10.655 16.838-15.111 25.749l17.935 16.080c5.192 4.647 7.047 11.978 4.692 18.535-3.505 9.682-6.192 19.643-8.032 29.774-1.238 6.846-6.5 12.262-13.309 13.692l-22.126 4.659v30.558l22.126 4.659c6.81 1.432 12.072 6.846 13.309 13.692 1.847 10.142 4.533 20.111 8.032 29.808 2.355 6.553 0.498 13.878-4.692 18.518l-17.935 16.062c4.461 8.909 9.509 17.512 15.111 25.749l22.592-7.432c6.619-2.161 13.889-0.109 18.401 5.194 6.673 7.889 13.989 15.212 21.874 21.891 5.299 4.51 7.344 11.775 5.177 18.386l-7.432 22.575c8.237 5.606 16.838 10.655 25.749 15.111l16.080-17.935c4.653-5.181 11.978-7.034 18.535-4.692 9.682 3.505 19.643 6.192 29.774 8.032 6.846 1.238 12.262 6.5 13.692 13.309l4.659 22.126h30.558l4.659-22.126c1.432-6.81 6.846-12.072 13.692-13.309 10.142-1.847 20.111-4.533 29.806-8.032 6.553-2.347 13.874-0.492 18.518 4.692l16.065 17.935c8.909-4.461 17.512-9.509 25.749-15.111l-7.432-22.592c-2.172-6.619-0.118-13.895 5.194-18.401 7.889-6.673 15.212-13.989 21.891-21.874 4.525-5.271 11.773-7.312 18.386-5.177l22.575 7.432c5.606-8.237 10.655-16.838 15.111-25.749l-17.935-16.080c-5.192-4.647-7.047-11.978-4.692-18.535 3.505-9.682 6.192-19.643 8.032-29.774 1.238-6.846 6.5-12.262 13.309-13.692l22.126-4.659v-30.556zM768.369 344.424c-84.991 0-153.891-68.898-153.891-153.891 0-84.991 68.901-153.891 153.891-153.891 84.954 0.092 153.8 68.937 153.891 153.891 0 84.993-68.901 153.891-153.891 153.891zM768.369 70.839c-66.071 0.079-119.614 53.623-119.693 119.693 0 66.105 53.588 119.693 119.693 119.693s119.693-53.588 119.693-119.693c0-66.105-53.588-119.693-119.693-119.693zM477.685 771.9h136.792v-34.198h-136.792v34.198zM476.309 214.351c-1.729 4.044-4.95 7.265-8.994 8.994v0l-119.693 51.297c-8.671 3.723-18.719-0.289-22.443-8.96-0.915-2.133-1.387-4.431-1.385-6.752v-34.198h-205.189v273.585h-34.198v-290.684c-0.006-9.439 7.641-17.093 17.080-17.099 0.006 0 0.013 0 0.019 0h222.288v-34.198c-0.006-9.437 7.639-17.093 17.076-17.099 0.009 0 0.015 0 0.024 0 2.315-0.004 4.606 0.466 6.728 1.385l119.693 51.297c8.678 3.708 12.705 13.754 8.994 22.432zM357.992 182.267v50.729l59.18-25.364-59.18-25.364zM823.623 252.783l-73.507-88.216-38.056 38.054-24.178-24.178 51.297-51.297c3.202-3.212 7.554-5.014 12.089-5.010 0.25 0 0.517 0 0.767 0.017 4.803 0.216 9.291 2.439 12.373 6.128l85.495 102.594-26.281 21.908z" />
<glyph unicode="&#xe911;" d="M987.3 923.278c-23.504 23.512-55.386 36.722-88.63 36.722s-65.126-13.21-88.628-36.722l-37.96-37.958-50.494-50.67-101.34-101.164-490.46-490.46c-10.478-10.432-18.656-22.942-24.012-36.722l-105.754-270.304 270.124 105.756c13.824 5.374 26.386 13.55 36.9 24.010l680.252 680.43c23.484 23.482 36.678 55.33 36.678 88.54s-13.192 65.060-36.676 88.542z" />
<glyph unicode="&#xe912;" d="M949.34 708.062l-50.67-50.494-177.082 177.080 50.494 50.672z" />
<glyph unicode="&#xe913;" d="M987.3 746.196l-37.958-38.136-177.26 177.26 37.958 37.958c48.912 48.878 128.176 48.884 177.094 0.012s48.994-128.134 0.166-177.094z" />
<glyph unicode="&#xe914;" d="M898.67 657.568l-101.164-101.342-177.258 177.258 101.34 101.164z" />
<glyph unicode="&#xe915;" d="M126.786-14.388l-126.764-49.612 49.612 126.764c40.264-5.19 71.962-36.888 77.152-77.152z" />
<glyph unicode="&#xe916;" d="M341.826 100.546l-34.78-34.78c-10.512-10.462-23.076-18.636-36.9-24.010l-143.36-56.144c-5.19 40.266-36.888 71.962-77.154 77.154l56.144 143.536c5.354 13.782 13.534 26.29 24.012 36.722l34.78 34.78 12.712-12.712c10.088-10.056 15.758-23.714 15.758-37.958s-5.67-27.902-15.758-37.958c10.018 10.14 23.706 15.806 37.958 15.714 21.712 0.006 41.29-13.072 49.6-33.13 8.31-20.060 3.716-43.15-11.64-58.5 10.056 10.088 23.714 15.758 37.958 15.758s27.902-5.67 37.958-15.758l12.712-12.714z" />
<glyph unicode="&#xe917;" d="M797.506 556.226l-455.68-455.68-12.712 12.712c-10.056 10.088-23.714 15.758-37.958 15.758s-27.902-5.67-37.958-15.758c15.356 15.35 19.95 38.44 11.64 58.5s-27.886 33.136-49.6 33.13c-14.254 0.092-27.94-5.574-37.958-15.714 10.088 10.056 15.758 23.714 15.758 37.958s-5.67 27.902-15.758 37.958l-12.712 12.712 455.68 455.68 177.258-177.256z" />
<glyph unicode="&#xe918;" d="M607.59 601.88c-7.142-0.002-13.58 4.298-16.316 10.896-2.734 6.598-1.226 14.192 3.824 19.242l12.656 12.664c6.904 6.84 18.038 6.816 24.912-0.054s6.906-18.002 0.070-24.912l-12.656-12.664c-3.308-3.316-7.804-5.178-12.49-5.172z" />
<glyph unicode="&#xe919;" d="M265.832 260.122c-7.14 0.002-13.576 4.304-16.308 10.9s-1.222 14.188 3.826 19.238l291.128 291.13c6.894 6.894 18.072 6.894 24.966 0s6.894-18.072 0-24.966l-291.13-291.13c-3.306-3.316-7.798-5.178-12.482-5.172z" />
<glyph unicode="&#xe91a;" d="M949.34 708.062l-50.67-50.494-177.082 177.080 50.494 50.672z" />
<glyph unicode="&#xe91b;" d="M898.67 657.568l-101.164-101.342-177.258 177.258 101.34 101.164z" />
<glyph unicode="&#xe91c;" d="M126.786-14.388l-126.764-49.612 49.612 126.764c40.264-5.19 71.962-36.888 77.152-77.152z" />
<glyph unicode="&#xe91d;" d="M341.826 100.546l-34.78-34.78c-10.512-10.462-23.076-18.636-36.9-24.010l-143.36-56.144c-5.19 40.266-36.888 71.962-77.154 77.154l56.144 143.536c5.354 13.782 13.534 26.29 24.012 36.722l34.78 34.78 12.712-12.712c10.088-10.056 15.758-23.714 15.758-37.958s-5.67-27.902-15.758-37.958c10.018 10.14 23.706 15.806 37.958 15.714 21.712 0.006 41.29-13.072 49.6-33.13 8.31-20.060 3.716-43.15-11.64-58.5 10.056 10.088 23.714 15.758 37.958 15.758s27.902-5.67 37.958-15.758l12.712-12.714z" />
<glyph unicode="&#xe91e;" d="M607.59 601.88c-7.142-0.002-13.58 4.298-16.316 10.896-2.734 6.598-1.226 14.192 3.824 19.242l12.656 12.664c6.904 6.84 18.038 6.816 24.912-0.054s6.906-18.002 0.070-24.912l-12.656-12.664c-3.308-3.316-7.804-5.178-12.49-5.172z" />
<glyph unicode="&#xe91f;" d="M265.832 260.122c-7.14 0.002-13.576 4.304-16.308 10.9s-1.222 14.188 3.826 19.238l291.128 291.13c6.894 6.894 18.072 6.894 24.966 0s6.894-18.072 0-24.966l-291.13-291.13c-3.306-3.316-7.798-5.178-12.482-5.172z" />
<glyph unicode="&#xe920;" d="M987.3 923.278c-23.504 23.512-55.386 36.722-88.63 36.722s-65.126-13.21-88.628-36.722l-37.96-37.958-50.494-50.67-101.34-101.164-490.46-490.46c-10.478-10.432-18.656-22.942-24.012-36.722l-105.754-270.304 270.124 105.756c13.824 5.374 26.386 13.55 36.9 24.010l680.252 680.43c23.484 23.482 36.678 55.33 36.678 88.54s-13.192 65.060-36.676 88.542z" />
<glyph unicode="&#xe921;" d="M949.34 708.062l-50.67-50.494-177.082 177.080 50.494 50.672z" />
<glyph unicode="&#xe922;" d="M987.3 746.196l-37.958-38.136-177.26 177.26 37.958 37.958c48.912 48.878 128.176 48.884 177.094 0.012s48.994-128.134 0.166-177.094z" />
<glyph unicode="&#xe923;" d="M898.67 657.568l-101.164-101.342-177.258 177.258 101.34 101.164z" />
<glyph unicode="&#xe924;" d="M126.786-14.388l-126.764-49.612 49.612 126.764c40.264-5.19 71.962-36.888 77.152-77.152z" />
<glyph unicode="&#xe925;" d="M341.826 100.546l-34.78-34.78c-10.512-10.462-23.076-18.636-36.9-24.010l-143.36-56.144c-5.19 40.266-36.888 71.962-77.154 77.154l56.144 143.536c5.354 13.782 13.534 26.29 24.012 36.722l34.78 34.78 12.712-12.712c10.088-10.056 15.758-23.714 15.758-37.958s-5.67-27.902-15.758-37.958c10.018 10.14 23.706 15.806 37.958 15.714 21.712 0.006 41.29-13.072 49.6-33.13 8.31-20.060 3.716-43.15-11.64-58.5 10.056 10.088 23.714 15.758 37.958 15.758s27.902-5.67 37.958-15.758l12.712-12.714z" />
<glyph unicode="&#xe926;" d="M797.506 556.226l-455.68-455.68-12.712 12.712c-10.056 10.088-23.714 15.758-37.958 15.758s-27.902-5.67-37.958-15.758c15.356 15.35 19.95 38.44 11.64 58.5s-27.886 33.136-49.6 33.13c-14.254 0.092-27.94-5.574-37.958-15.714 10.088 10.056 15.758 23.714 15.758 37.958s-5.67 27.902-15.758 37.958l-12.712 12.712 455.68 455.68 177.258-177.256z" />
<glyph unicode="&#xe927;" d="M607.59 601.88c-7.142-0.002-13.58 4.298-16.316 10.896-2.734 6.598-1.226 14.192 3.824 19.242l12.656 12.664c6.904 6.84 18.038 6.816 24.912-0.054s6.906-18.002 0.070-24.912l-12.656-12.664c-3.308-3.316-7.804-5.178-12.49-5.172z" />
<glyph unicode="&#xe928;" d="M265.832 260.122c-7.14 0.002-13.576 4.304-16.308 10.9s-1.222 14.188 3.826 19.238l291.128 291.13c6.894 6.894 18.072 6.894 24.966 0s6.894-18.072 0-24.966l-291.13-291.13c-3.306-3.316-7.798-5.178-12.482-5.172z" />
<glyph unicode="&#xe929;" d="M949.34 708.062l-50.67-50.494-177.082 177.080 50.494 50.672z" />
<glyph unicode="&#xe92a;" d="M898.67 657.568l-101.164-101.342-177.258 177.258 101.34 101.164z" />
<glyph unicode="&#xe92b;" d="M126.786-14.388l-126.764-49.612 49.612 126.764c40.264-5.19 71.962-36.888 77.152-77.152z" />
<glyph unicode="&#xe92c;" d="M341.826 100.546l-34.78-34.78c-10.512-10.462-23.076-18.636-36.9-24.010l-143.36-56.144c-5.19 40.266-36.888 71.962-77.154 77.154l56.144 143.536c5.354 13.782 13.534 26.29 24.012 36.722l34.78 34.78 12.712-12.712c10.088-10.056 15.758-23.714 15.758-37.958s-5.67-27.902-15.758-37.958c10.018 10.14 23.706 15.806 37.958 15.714 21.712 0.006 41.29-13.072 49.6-33.13 8.31-20.060 3.716-43.15-11.64-58.5 10.056 10.088 23.714 15.758 37.958 15.758s27.902-5.67 37.958-15.758l12.712-12.714z" />
<glyph unicode="&#xe92d;" d="M607.59 601.88c-7.142-0.002-13.58 4.298-16.316 10.896-2.734 6.598-1.226 14.192 3.824 19.242l12.656 12.664c6.904 6.84 18.038 6.816 24.912-0.054s6.906-18.002 0.070-24.912l-12.656-12.664c-3.308-3.316-7.804-5.178-12.49-5.172z" />
<glyph unicode="&#xe92e;" d="M265.832 260.122c-7.14 0.002-13.576 4.304-16.308 10.9s-1.222 14.188 3.826 19.238l291.128 291.13c6.894 6.894 18.072 6.894 24.966 0s6.894-18.072 0-24.966l-291.13-291.13c-3.306-3.316-7.798-5.178-12.482-5.172z" />
<glyph unicode="&#xe92f;" glyph-name="personnel" d="M826.766 104.865c-85.108 110.776-195.884 171.567-314.766 171.567s-229.656-60.791-314.766-171.567l-64.843 49.983c99.968 131.041 235.061 202.638 379.609 202.638s278.289-71.6 379.609-202.638l-64.843-49.983zM512 352.084c-116.181 0-210.744 94.564-210.744 212.094s94.564 212.094 210.744 212.094 210.744-94.564 210.744-212.094-94.564-212.094-210.744-212.094zM512 695.219c-71.6 0-129.688-59.441-129.688-131.041s58.089-131.041 129.688-131.041 129.688 59.441 129.688 131.041-58.089 131.041-129.688 131.041zM512-64c-282.344 0-512 229.656-512 512s229.656 512 512 512 512-229.656 512-512-229.656-512-512-512zM512 878.944c-237.763 0-430.944-193.182-430.944-430.944s193.182-430.944 430.944-430.944 430.944 193.182 430.944 430.944-193.182 430.944-430.944 430.944z" />
<glyph unicode="&#xe930;" glyph-name="plus1" d="M512 960c-282.764 0-512-229.236-512-512s229.236-512 512-512 512 229.236 512 512-229.236 512-512 512zM512 21.334c-235.636 0-426.666 191.030-426.666 426.666s191.030 426.666 426.666 426.666 426.666-191.030 426.666-426.666-191.030-426.666-426.666-426.666zM767.992 490.666h-213.326v213.334c0 23.564-19.102 42.666-42.666 42.666s-42.666-19.102-42.666-42.666v-213.334h-213.258c-23.564 0-42.666-19.102-42.666-42.666s19.102-42.666 42.666-42.666h213.256v-213.334c0-23.564 19.102-42.666 42.666-42.666s42.666 19.102 42.666 42.666v213.334h213.324c23.564 0 42.666 19.102 42.666 42.666s-19.098 42.666-42.662 42.666z" />
<glyph unicode="&#xe931;" glyph-name="plus" d="M512 960c-282.764 0-512-229.236-512-512s229.236-512 512-512 512 229.236 512 512-229.236 512-512 512zM512 21.334c-235.636 0-426.666 191.030-426.666 426.666s191.030 426.666 426.666 426.666 426.666-191.030 426.666-426.666-191.030-426.666-426.666-426.666zM767.992 490.666h-213.326v213.334c0 23.564-19.102 42.666-42.666 42.666s-42.666-19.102-42.666-42.666v-213.334h-213.258c-23.564 0-42.666-19.102-42.666-42.666s19.102-42.666 42.666-42.666h213.256v-213.334c0-23.564 19.102-42.666 42.666-42.666s42.666 19.102 42.666 42.666v213.334h213.324c23.564 0 42.666 19.102 42.666 42.666s-19.098 42.666-42.662 42.666z" />
<glyph unicode="&#xe932;" glyph-name="plus-black-symbol1" d="M1003.637 567.27c-13.58 13.577-30.073 20.363-49.461 20.363h-302.548v302.556c0 19.388-6.791 35.876-20.363 49.453-13.575 13.567-30.051 20.358-49.466 20.358h-139.623c-19.39 0-35.876-6.783-49.453-20.361s-20.363-30.066-20.363-49.453v-302.556h-302.546c-19.388 0-35.876-6.786-49.453-20.363s-20.361-30.051-20.361-49.451v-139.641c0-19.405 6.781-35.881 20.358-49.446 13.577-13.582 30.066-20.363 49.453-20.363h302.546v-302.561c0-19.388 6.786-35.889 20.363-49.461 13.577-13.564 30.063-20.345 49.453-20.345h139.633c19.403 0 35.881 6.781 49.461 20.345 13.582 13.58 20.363 30.073 20.363 49.461v302.561h302.543c19.405 0 35.889 6.781 49.461 20.363 13.575 13.564 20.363 30.040 20.363 49.446v139.641c-0.005 19.4-6.778 35.884-20.361 49.453z" />
<glyph unicode="&#xe933;" glyph-name="plus-black-symbol" d="M1003.637 567.27c-13.58 13.577-30.073 20.363-49.461 20.363h-302.548v302.556c0 19.388-6.791 35.876-20.363 49.453-13.575 13.567-30.051 20.358-49.466 20.358h-139.623c-19.39 0-35.876-6.783-49.453-20.361s-20.363-30.066-20.363-49.453v-302.556h-302.546c-19.388 0-35.876-6.786-49.453-20.363s-20.361-30.051-20.361-49.451v-139.641c0-19.405 6.781-35.881 20.358-49.446 13.577-13.582 30.066-20.363 49.453-20.363h302.546v-302.561c0-19.388 6.786-35.889 20.363-49.461 13.577-13.564 30.063-20.345 49.453-20.345h139.633c19.403 0 35.881 6.781 49.461 20.345 13.582 13.58 20.363 30.073 20.363 49.461v302.561h302.543c19.405 0 35.889 6.781 49.461 20.363 13.575 13.564 20.363 30.040 20.363 49.446v139.641c-0.005 19.4-6.778 35.884-20.361 49.453z" />
<glyph unicode="&#xe934;" glyph-name="remove-symbol1" d="M746.448 447.995l253.415 253.415c16.098 16.083 24.134 35.619 24.134 58.612 0 22.987-8.058 42.521-24.134 58.612l-117.222 117.234c-16.089 16.086-35.622 24.131-58.603 24.131-22.996 0-42.524-8.046-58.621-24.131l-253.412-253.415-253.418 253.415c-16.080 16.086-35.616 24.131-58.612 24.131-22.978 0-42.518-8.046-58.612-24.131l-117.228-117.234c-16.083-16.080-24.134-35.625-24.134-58.612 0-22.993 8.043-42.521 24.134-58.612l253.412-253.415-253.412-253.415c-16.083-16.095-24.134-35.622-24.134-58.621 0-22.975 8.043-42.515 24.134-58.6l117.231-117.225c16.092-16.098 35.634-24.134 58.612-24.134 22.993 0 42.521 8.058 58.612 24.134l253.418 253.415 253.433-253.415c16.086-16.098 35.604-24.134 58.621-24.134 22.978 0 42.515 8.058 58.603 24.134l117.2 117.225c16.098 16.074 24.134 35.625 24.134 58.6 0 22.999-8.037 42.527-24.134 58.621l-253.418 253.415z" />
<glyph unicode="&#xe935;" glyph-name="remove-symbol" d="M746.448 447.995l253.415 253.415c16.098 16.083 24.134 35.619 24.134 58.612 0 22.987-8.058 42.521-24.134 58.612l-117.222 117.234c-16.089 16.086-35.622 24.131-58.603 24.131-22.996 0-42.524-8.046-58.621-24.131l-253.412-253.415-253.418 253.415c-16.080 16.086-35.616 24.131-58.612 24.131-22.978 0-42.518-8.046-58.612-24.131l-117.228-117.234c-16.083-16.080-24.134-35.625-24.134-58.612 0-22.993 8.043-42.521 24.134-58.612l253.412-253.415-253.412-253.415c-16.083-16.095-24.134-35.622-24.134-58.621 0-22.975 8.043-42.515 24.134-58.6l117.231-117.225c16.092-16.098 35.634-24.134 58.612-24.134 22.993 0 42.521 8.058 58.612 24.134l253.418 253.415 253.433-253.415c16.086-16.098 35.604-24.134 58.621-24.134 22.978 0 42.515 8.058 58.603 24.134l117.2 117.225c16.098 16.074 24.134 35.625 24.134 58.6 0 22.999-8.037 42.527-24.134 58.621l-253.418 253.415z" />
<glyph unicode="&#xe936;" glyph-name="report" d="M987.428 703.999h-182.856v219.428c0 20.199-16.374 36.572-36.572 36.572h-731.427c-20.199 0-36.572-16.374-36.572-36.572v-841.142c0-80.792 65.494-146.286 146.286-146.286h731.427c80.792 0 146.286 65.494 146.286 146.286v585.143c0 20.196-16.374 36.57-36.572 36.57zM292.571 777.144h219.428c20.199 0 36.572-16.374 36.572-36.572s-16.374-36.572-36.572-36.572h-219.428c-20.199 0-36.572 16.374-36.572 36.572s16.376 36.572 36.572 36.572zM621.713 82.286h-438.857c-20.199 0-36.572 16.374-36.572 36.572s16.374 36.572 36.572 36.572h438.857c20.199 0 36.572-16.374 36.572-36.572s-16.374-36.572-36.572-36.572zM621.713 228.573h-438.857c-20.199 0-36.572 16.374-36.572 36.572s16.374 36.572 36.572 36.572h438.857c20.199 0 36.572-16.374 36.572-36.572s-16.374-36.572-36.572-36.572zM621.713 374.857h-438.857c-20.199 0-36.572 16.374-36.572 36.572s16.374 36.572 36.572 36.572h438.857c20.199 0 36.572-16.374 36.572-36.572s-16.374-36.572-36.572-36.572zM621.713 521.143h-438.857c-20.199 0-36.572 16.374-36.572 36.572s16.374 36.572 36.572 36.572h438.857c20.199 0 36.572-16.374 36.572-36.572s-16.374-36.572-36.572-36.572zM950.856 82.286c0-40.395-32.747-73.142-73.142-73.142s-73.142 32.747-73.142 73.142v548.571h146.286v-548.571z" />
<glyph unicode="&#xe937;" glyph-name="search" d="M731.429 316.343h-46.811l-17.552 17.554c58.514 64.366 93.623 152.137 93.623 245.76-0.002 210.651-169.694 380.343-380.345 380.343s-380.343-169.691-380.343-380.343 169.691-380.343 380.343-380.343c93.623 0 181.394 35.109 245.76 93.623l17.554-17.552v-46.811l292.571-292.574 87.771 87.771-292.571 292.571zM380.343 316.343c-146.286 0-263.314 117.029-263.314 263.314s117.029 263.314 263.314 263.314 263.314-117.029 263.314-263.314-117.029-263.314-263.314-263.314z" />
<glyph unicode="&#xe938;" glyph-name="settings3" d="M1020.776 504.846c-1.616 14.392-18.405 25.22-32.921 25.22-46.915 0-88.551 27.536-106.012 70.155-17.824 43.642-6.324 94.529 28.63 126.596 11.009 10.066 12.351 26.92 3.122 38.62-24.020 30.494-51.308 58.043-81.111 81.917-11.66 9.353-28.794 8.051-38.913-3.149-30.516-33.798-85.336-46.357-127.698-28.683-44.067 18.542-71.882 63.211-69.15 111.158 0.899 15.070-10.119 28.165-25.136 29.914-38.248 4.428-76.833 4.557-115.192 0.301-14.826-1.639-25.835-14.423-25.344-29.303 1.661-47.477-26.469-91.359-70.111-109.236-41.853-17.098-96.292-4.632-126.746 28.869-10.066 11.036-26.898 12.391-38.638 3.237-30.68-24.077-58.584-51.644-82.825-81.891-9.446-11.757-8.051-28.798 3.051-38.899 35.644-32.279 47.136-83.604 28.63-127.756-17.669-42.092-61.374-69.208-111.402-69.208-16.235 0.523-27.788-10.385-29.582-25.149-4.499-38.452-4.548-77.653-0.217-116.419 1.616-14.454 18.901-25.189 33.576-25.189 44.594 1.134 87.382-26.455 105.357-70.151 17.886-43.642 6.373-94.507-28.639-126.618-10.952-10.066-12.351-26.881-3.104-38.567 23.776-30.304 51.091-57.871 80.983-81.948 11.735-9.45 28.803-8.126 38.975 3.087 30.636 33.878 85.447 46.414 127.636 28.705 44.196-18.493 71.997-63.158 69.283-111.118-0.89-15.070 10.154-28.205 25.118-29.914 19.574-2.29 39.249-3.423 58.987-3.423 18.732 0 37.469 1.023 56.206 3.109 14.844 1.639 25.835 14.437 25.335 29.321-1.714 47.455 26.478 91.341 70.067 109.183 42.132 17.209 96.327 4.614 126.799-28.838 10.119-11.014 26.85-12.351 38.638-3.233 30.627 24.015 58.477 51.569 82.825 81.895 9.455 11.735 8.113 28.798-3.051 38.917-35.636 32.257-47.189 83.604-28.683 127.712 17.395 41.525 59.474 69.407 104.732 69.407l6.333-0.168c14.694-1.191 28.196 10.123 29.972 25.114 4.521 38.488 4.57 77.644 0.221 116.424zM511.998 152.829c-163.024 0-295.173 132.149-295.173 295.168s132.153 295.168 295.173 295.168 295.173-132.149 295.173-295.168c0-55.333-15.256-107.088-41.751-151.346l-129.248 129.253c9.357 22.062 14.299 45.98 14.295 70.665 0 48.336-18.825 93.777-53.008 127.951-34.174 34.174-79.614 52.995-127.942 52.995-16.128 0-32.181-2.143-47.712-6.373-6.802-1.856-12.364-7.462-14.175-14.277-1.851-6.97 0.235-14.113 5.682-19.565 0 0 63.809-64.301 85.159-85.646 2.236-2.236 2.232-7.573 1.918-9.495l-0.199-1.404c-2.152-23.471-6.302-51.644-9.725-62.472-0.461-0.456-0.895-0.841-1.364-1.311-0.492-0.492-0.943-0.965-1.417-1.453-10.969-3.521-39.577-7.719-63.42-9.853l0.004 0.128-1.072-0.27c-0.19-0.022-0.545-0.049-1.014-0.049-2.577 0-6.368 0.722-9.813 4.163-22.222 22.222-83.529 83.091-83.529 83.091-5.5 5.482-11.142 6.634-14.902 6.634-8.764 0-16.611-6.333-19.082-15.415-16.877-62.454 1.014-129.634 46.702-175.326 34.183-34.179 79.628-52.999 127.964-52.999 24.684 0 48.602 4.938 70.66 14.295l130.652-130.652c-45.87-29.352-100.339-46.437-158.835-46.437z" />
<glyph unicode="&#xe939;" d="M116.664 745.914v-678.976c0-14.109 11.437-25.547 25.539-25.547h739.593c14.102 0 25.539 11.437 25.539 25.547v678.976l-395.336 154.437z" />
<glyph unicode="&#xe93a;" d="M512 900.351l-26.25-10.258 369.078-144.18v-678.976c0-14.109-11.437-25.547-25.539-25.547h52.508c14.102 0 25.539 11.437 25.539 25.547v678.976z" />
<glyph unicode="&#xe93b;" d="M283.062 512.109v-470.718h457.882v470.718c0 17.336-14.062 31.398-31.406 31.398h-395.078c-17.344 0-31.398-14.055-31.398-31.398z" />
<glyph unicode="&#xe93c;" d="M364.336 543.508h-49.875c-17.344 0-31.398-14.055-31.398-31.398v-470.718h49.867v470.718c0 17.344 14.062 31.398 31.406 31.398z" />
<glyph unicode="&#xe93d;" d="M988.335 668.648c-4.523 0-9.117 0.867-13.555 2.695l-462.781 190.469-462.781-190.469c-18.195-7.484-39.039 1.187-46.523 19.398-7.5 18.203 1.187 39.031 19.391 46.531l476.351 196.047c8.687 3.57 18.437 3.57 27.133 0l476.343-196.047c18.203-7.5 26.883-28.328 19.398-46.531-5.672-13.766-18.961-22.094-32.977-22.094z" />
<glyph unicode="&#xe93e;" d="M709.539 543.508h-395.078c-17.344 0-31.398-14.062-31.398-31.398v-108.492h457.882v108.492c0 17.344-14.062 31.398-31.406 31.398z" />
<glyph unicode="&#xe93f;" d="M332.929 512.109c0 17.344 14.062 31.398 31.406 31.398h-49.875c-8.672 0-16.523-3.516-22.203-9.195-3.555-3.555-6.258-7.953-7.789-12.867-0.305-0.984-0.562-1.992-0.773-3.008-0.414-2.047-0.633-4.164-0.633-6.328v-108.492h49.867z" />
<glyph unicode="&#xe940;" d="M0 312.688v-353.039h356.406v353.039c0 10.070-8.164 18.234-18.242 18.234h-319.922c-10.078 0-18.242-8.164-18.242-18.234z" />
<glyph unicode="&#xe941;" d="M338.164 330.922h-47.297c10.078 0 18.242-8.164 18.242-18.234v-353.039h47.297v353.039c0 10.070-8.164 18.234-18.242 18.234z" />
<glyph unicode="&#xe942;" d="M230.086 202.281l-22.758 17.117c-0.812 0.609-1.922 0.609-2.727 0l-25.023-18.828c-0.805-0.609-1.914-0.609-2.727 0l-25.031 18.828c-0.812 0.609-1.922 0.609-2.734 0l-22.766-17.117c-1.492-1.125-3.633-0.062-3.633 1.812v126.828h111.023v-126.836c0.008-1.867-2.133-2.937-3.625-1.805z" />
<glyph unicode="&#xe943;" d="M356.406 227.164v-267.508h270.070v267.508c0 7.633-6.195 13.82-13.828 13.82h-242.414c-7.641 0-13.828-6.187-13.828-13.82z" />
<glyph unicode="&#xe944;" d="M612.648 240.985h-48.375c7.633 0 13.82-6.187 13.82-13.82v-267.508h48.375v267.508c0.008 7.633-6.187 13.82-13.82 13.82z" />
<glyph unicode="&#xe945;" d="M530.75 143.5l-17.242 12.969c-0.609 0.461-1.453 0.461-2.070 0l-18.953-14.266c-0.609-0.461-1.453-0.461-2.062 0l-18.977 14.266c-0.609 0.461-1.453 0.461-2.062 0l-17.258-12.969c-1.125-0.852-2.75-0.047-2.75 1.375v96.109h84.133v-96.109c0-1.422-1.625-2.227-2.758-1.375z" />
<glyph unicode="&#xe946;" d="M283.062 491.312h457.882v-30h-457.882z" />
<glyph unicode="&#xe947;" d="M250.336 93.899h-144.266c-8.281 0-15 6.711-15 15 0 8.281 6.719 15 15 15h144.266c8.281 0 15-6.719 15-15 0-8.289-6.719-15-15-15z" />
<glyph unicode="&#xe948;" d="M250.336 28.992h-144.266c-8.281 0-15 6.719-15 15 0 8.289 6.719 15 15 15h144.266c8.281 0 15-6.711 15-15 0-8.281-6.719-15-15-15z" />
<glyph unicode="&#xe949;" d="M539.812 60.321h-96.75c-8.289 0-15 6.719-15 15 0 8.289 6.711 15 15 15h96.75c8.289 0 15-6.711 15-15 0-8.281-6.711-15-15-15z" />
<glyph unicode="&#xe94a;" d="M539.812 16.797h-96.75c-8.289 0-15 6.711-15 15 0 8.281 6.711 15 15 15h96.75c8.289 0 15-6.719 15-15 0-8.289-6.711-15-15-15z" />
<glyph unicode="&#xe94b;" d="M472.664 620.711h-79.992c-8.281 0-15 6.719-15 15 0 8.289 6.719 15 15 15h79.992c8.281 0 15-6.711 15-15 0-8.281-6.719-15-15-15z" />
<glyph unicode="&#xe94c;" d="M631.328 620.711h-79.992c-8.281 0-15 6.719-15 15 0 8.289 6.719 15 15 15h79.992c8.281 0 15-6.711 15-15 0-8.281-6.719-15-15-15z" />
<glyph unicode="&#xe94d;" glyph-name="sort-arrows" d="M186.186 541.095h651.626c12.606 0 23.519 4.603 32.727 13.816 9.203 9.211 13.824 20.118 13.824 32.725s-4.618 23.509-13.824 32.733l-325.814 325.814c-9.206 9.201-20.111 13.816-32.725 13.816s-23.519-4.616-32.733-13.816l-325.814-325.814c-9.213-9.213-13.816-20.126-13.816-32.733 0-12.604 4.603-23.514 13.816-32.725 9.224-9.213 20.129-13.816 32.733-13.816zM837.812 354.897h-651.626c-12.614 0-23.519-4.605-32.733-13.809-9.213-9.213-13.816-20.118-13.816-32.725s4.603-23.519 13.816-32.727l325.814-325.809c9.224-9.213 20.129-13.827 32.733-13.827s23.519 4.613 32.725 13.827l325.814 325.812c9.203 9.206 13.824 20.118 13.824 32.727 0 12.604-4.618 23.509-13.824 32.725-9.206 9.211-20.121 13.806-32.727 13.806z" />
<glyph unicode="&#xe94e;" glyph-name="sort-down" d="M1004.992 717.007c-12.658 12.669-27.663 18.998-45 18.998h-895.987c-17.344 0-32.339-6.329-45.007-18.998-12.669-12.683-18.998-27.677-18.998-45.011 0-17.33 6.329-32.325 18.998-44.997l447.995-447.995c12.683-12.669 27.677-19.012 45.007-19.012s32.339 6.343 44.997 19.012l447.995 447.999c12.655 12.669 19.008 27.663 19.008 44.997 0 17.33-6.354 32.325-19.008 45.007z" />
<glyph unicode="&#xe94f;" glyph-name="sort-up" d="M1004.992 268.999l-447.995 447.992c-12.655 12.669-27.652 18.998-44.997 18.998s-32.339-6.329-45.007-18.998l-447.995-447.992c-12.669-12.669-18.998-27.666-18.998-44.997s6.329-32.339 18.998-44.997c12.683-12.669 27.677-19.001 45.007-19.001h895.987c17.334 0 32.339 6.333 45 19.001 12.655 12.655 19.008 27.663 19.008 44.997s-6.354 32.328-19.008 44.997z" />
<glyph unicode="&#xe950;" glyph-name="close1" d="M512 960c-282.312 0-512-229.688-512-512s229.688-512 512-512 512 229.688 512 512-229.688 512-512 512zM512-21.334c-258.792 0-469.334 210.542-469.334 469.334s210.542 469.334 469.334 469.334 469.334-210.542 469.334-469.334-210.542-469.334-469.334-469.334zM719.084 655.084c-8.334 8.334-21.834 8.334-30.166 0l-176.918-176.918-176.916 176.916c-8.334 8.334-21.834 8.334-30.166 0-8.334-8.334-8.334-21.834 0-30.166l176.916-176.916-176.916-176.916c-8.334-8.334-8.334-21.834 0-30.166 4.166-4.166 9.626-6.25 15.084-6.25s10.916 2.084 15.084 6.25l176.914 176.916 176.916-176.916c4.166-4.166 9.626-6.25 15.084-6.25s10.916 2.084 15.084 6.25c8.334 8.334 8.334 21.834 0 30.166l-176.918 176.916 176.916 176.916c8.334 8.334 8.334 21.834 0.002 30.168z" />
<glyph unicode="&#xe951;" glyph-name="close" d="M512 960c-282.312 0-512-229.688-512-512s229.688-512 512-512 512 229.688 512 512-229.688 512-512 512zM512-21.334c-258.792 0-469.334 210.542-469.334 469.334s210.542 469.334 469.334 469.334 469.334-210.542 469.334-469.334-210.542-469.334-469.334-469.334zM719.084 655.084c-8.334 8.334-21.834 8.334-30.166 0l-176.918-176.918-176.916 176.916c-8.334 8.334-21.834 8.334-30.166 0-8.334-8.334-8.334-21.834 0-30.166l176.916-176.916-176.916-176.916c-8.334-8.334-8.334-21.834 0-30.166 4.166-4.166 9.626-6.25 15.084-6.25s10.916 2.084 15.084 6.25l176.914 176.916 176.916-176.916c4.166-4.166 9.626-6.25 15.084-6.25s10.916 2.084 15.084 6.25c8.334 8.334 8.334 21.834 0 30.166l-176.918 176.916 176.916 176.916c8.334 8.334 8.334 21.834 0.002 30.168z" />
<glyph unicode="&#xe952;" glyph-name="check1" d="M1000.711 662.163l-540.738-540.675c-14.901-14.965-35.077-23.258-56.174-23.258s-41.273 8.356-56.174 23.258l-324.335 324.335c-31.074 31.010-31.074 81.306 0 112.284 31.042 31.042 81.306 31.042 112.316 0l268.161-268.129 484.533 484.533c31.042 31.042 81.306 31.042 112.284 0 31.169-31.042 31.169-81.338 0.127-112.348z" />
<glyph unicode="&#xe953;" glyph-name="check" d="M1000.711 662.163l-540.738-540.675c-14.901-14.965-35.077-23.258-56.174-23.258s-41.273 8.356-56.174 23.258l-324.335 324.335c-31.074 31.010-31.074 81.306 0 112.284 31.042 31.042 81.306 31.042 112.316 0l268.161-268.129 484.533 484.533c31.042 31.042 81.306 31.042 112.284 0 31.169-31.042 31.169-81.338 0.127-112.348z" />
<glyph unicode="&#xe954;" d="M608-57.773l-256 160v263.391l-352 382.336v206.047h1024v-206.047l-416-384z" />
<glyph unicode="&#xe955;" d="M0 954h1024v-206.047h-1024z" />
<glyph unicode="&#xe956;" d="M192 890h64v-64h-64z" />
<glyph unicode="&#xe957;" d="M320 890h64v-64h-64z" />
<glyph unicode="&#xe958;" d="M64 890h64v-64h-64z" />
<glyph unicode="&#xe959;" d="M608 301.617h-256v64l256-1.023z" />
<glyph unicode="&#xe95a;" d="M608-57.773l-256 160v263.391l-352 382.336v206.047h1024v-206.047l-416-384z" />
<glyph unicode="&#xe95b;" d="M0 954h1024v-206.047h-1024z" />
<glyph unicode="&#xe95c;" d="M192 890h64v-64h-64z" />
<glyph unicode="&#xe95d;" d="M320 890h64v-64h-64z" />
<glyph unicode="&#xe95e;" d="M64 890h64v-64h-64z" />
<glyph unicode="&#xe95f;" d="M608 301.617h-256v64l256-1.023z" />
<glyph unicode="&#xe960;" glyph-name="rubbish1" d="M850.596 857.284h-182.91v69.324c0 18.44-14.95 33.392-33.392 33.392h-244.586c-18.44 0-33.392-14.95-33.392-33.392v-69.324h-182.91c-18.44 0-33.392-14.95-33.392-33.392v-102.714c0-18.44 14.95-33.392 33.392-33.392h677.186c18.44 0 33.392 14.95 33.392 33.392v102.714c0.002 18.444-14.948 33.392-33.388 33.392zM600.9 857.284h-177.8v35.934h177.8v-35.934zM186.384 621.006l27.688-653.032c0.756-17.874 15.47-31.976 33.36-31.976h529.136c17.89 0 32.604 14.102 33.36 31.978l27.686 653.030h-651.23zM411.060 71.79c0-18.44-14.95-33.392-33.392-33.392-18.44 0-33.392 14.95-33.392 33.392v413.428c0 18.44 14.95 33.392 33.392 33.392 18.44 0 33.392-14.95 33.392-33.392v-413.428zM545.386 71.79c0-18.44-14.95-33.392-33.392-33.392s-33.392 14.95-33.392 33.392v413.428c0 18.44 14.95 33.392 33.392 33.392s33.392-14.95 33.392-33.392v-413.428zM679.712 71.79c0-18.44-14.95-33.392-33.392-33.392s-33.392 14.95-33.392 33.392v413.428c0 18.44 14.95 33.392 33.392 33.392s33.392-14.95 33.392-33.392v-413.428z" />
<glyph unicode="&#xe961;" glyph-name="rubbish" d="M850.596 857.284h-182.91v69.324c0 18.44-14.95 33.392-33.392 33.392h-244.586c-18.44 0-33.392-14.95-33.392-33.392v-69.324h-182.91c-18.44 0-33.392-14.95-33.392-33.392v-102.714c0-18.44 14.95-33.392 33.392-33.392h677.186c18.44 0 33.392 14.95 33.392 33.392v102.714c0.002 18.444-14.948 33.392-33.388 33.392zM600.9 857.284h-177.8v35.934h177.8v-35.934zM186.384 621.006l27.688-653.032c0.756-17.874 15.47-31.976 33.36-31.976h529.136c17.89 0 32.604 14.102 33.36 31.978l27.686 653.030h-651.23zM411.060 71.79c0-18.44-14.95-33.392-33.392-33.392-18.44 0-33.392 14.95-33.392 33.392v413.428c0 18.44 14.95 33.392 33.392 33.392 18.44 0 33.392-14.95 33.392-33.392v-413.428zM545.386 71.79c0-18.44-14.95-33.392-33.392-33.392s-33.392 14.95-33.392 33.392v413.428c0 18.44 14.95 33.392 33.392 33.392s33.392-14.95 33.392-33.392v-413.428zM679.712 71.79c0-18.44-14.95-33.392-33.392-33.392s-33.392 14.95-33.392 33.392v413.428c0 18.44 14.95 33.392 33.392 33.392s33.392-14.95 33.392-33.392v-413.428z" />
<glyph unicode="&#xe962;" glyph-name="x-button1" d="M936.391-64c-22.415 0-44.814 8.56-61.918 25.663l-848.799 848.831c-34.207 34.207-34.207 89.676 0 123.851 34.207 34.207 89.628 34.207 123.851 0l848.799-848.831c34.207-34.207 34.207-89.676 0-123.851-17.119-17.103-39.534-25.663-61.934-25.663zM87.593-64c-22.415 0-44.814 8.56-61.918 25.663-34.207 34.175-34.207 89.628 0 123.851l848.799 848.815c34.207 34.207 89.628 34.207 123.851 0 34.207-34.175 34.207-89.628 0-123.851l-848.815-848.815c-17.103-17.103-39.502-25.663-61.918-25.663z" />
<glyph unicode="&#xe963;" glyph-name="x-button" d="M936.391-64c-22.415 0-44.814 8.56-61.918 25.663l-848.799 848.831c-34.207 34.207-34.207 89.676 0 123.851 34.207 34.207 89.628 34.207 123.851 0l848.799-848.831c34.207-34.207 34.207-89.676 0-123.851-17.119-17.103-39.534-25.663-61.934-25.663zM87.593-64c-22.415 0-44.814 8.56-61.918 25.663-34.207 34.175-34.207 89.628 0 123.851l848.799 848.815c34.207 34.207 89.628 34.207 123.851 0 34.207-34.175 34.207-89.628 0-123.851l-848.815-848.815c-17.103-17.103-39.502-25.663-61.918-25.663z" />
</font>
</defs>
</svg>
